<?xml version="1.0" encoding="iso-8859-1"?>
<!-- Generator: Adobe Illustrator 19.0.0, SVG Export Plug-In . SVG Version: 6.00 Build 0)  -->
<svg version="1.1" id="Layer_1" xmlns="http://www.w3.org/2000/svg" xmlns:xlink="http://www.w3.org/1999/xlink" x="0px" y="0px"
	 viewBox="0 0 512 512" style="enable-background:new 0 0 512 512;" xml:space="preserve">
<circle style="fill:#515262;" cx="256" cy="256" r="248"/>
<circle style="fill:#EFF2FA;" cx="256" cy="256" r="102.62"/>
<circle style="fill:#FFFFFF;" cx="285.93" cy="208.97" r="29.931"/>
<path style="fill:#464655;" d="M358.621,469.793c-136.966,0-248-111.033-248-248c0-90.189,48.154-169.119,120.143-212.522
	C105.65,21.916,8,127.553,8,256c0,136.966,111.034,248,248,248c46.777,0,90.519-12.966,127.856-35.478
	C375.559,469.361,367.14,469.793,358.621,469.793z"/>
<g>
	<path style="fill:#2D2B29;" d="M437.02,74.98C388.667,26.628,324.38,0,256,0S123.333,26.628,74.98,74.98S0,187.62,0,256
		s26.628,132.667,74.98,181.02S187.62,512,256,512s132.667-26.628,181.02-74.98S512,324.38,512,256S485.372,123.333,437.02,74.98z
		 M256,496C123.664,496,16,388.336,16,256S123.664,16,256,16s240,107.664,240,240S388.336,496,256,496z"/>
	<path style="fill:#2D2B29;" d="M317.627,57.279c5.179,1.604,10.361,3.438,15.402,5.448c0.972,0.388,1.975,0.571,2.961,0.571
		c3.178,0,6.184-1.906,7.433-5.038c1.637-4.104-0.363-8.757-4.467-10.395c-5.431-2.167-11.015-4.142-16.597-5.87
		c-4.218-1.307-8.701,1.054-10.008,5.275C311.045,51.491,313.407,55.972,317.627,57.279z"/>
	<path style="fill:#2D2B29;" d="M177.247,448.576c-40.466-16.566-75.428-46.252-98.443-83.59c-2.318-3.762-7.247-4.933-11.008-2.612
		c-3.761,2.318-4.931,7.247-2.612,11.008c24.779,40.199,62.425,72.162,106.002,90.002c0.992,0.406,2.018,0.598,3.028,0.598
		c3.151,0,6.139-1.875,7.407-4.971C183.294,454.922,181.336,450.25,177.247,448.576z"/>
	<path style="fill:#2D2B29;" d="M438.506,126.095c-17.814-24.984-40.128-45.725-66.322-61.646
		c-3.776-2.295-8.697-1.094-10.992,2.681c-2.295,3.776-1.094,8.697,2.681,10.992c24.33,14.787,45.057,34.053,61.605,57.262
		c1.561,2.189,4.022,3.356,6.521,3.356c1.607,0,3.229-0.483,4.638-1.487C440.234,134.688,441.071,129.693,438.506,126.095z"/>
	<path style="fill:#2D2B29;" d="M256,136c-66.168,0-120,53.832-120,120s53.832,120,120,120s120-53.832,120-120S322.168,136,256,136z
		 M256,360c-57.346,0-104-46.654-104-104s46.654-104,104-104s104,46.654,104,104S313.346,360,256,360z"/>
	<path style="fill:#2D2B29;" d="M279.712,246.926c3.825,2.211,8.718,0.906,10.931-2.918C294.147,237.95,296,231.031,296,224
		c0-22.056-17.944-40-40-40s-40,17.944-40,40s17.944,40,40,40c13.233,0,24,10.767,24,24s-10.767,24-24,24s-24-10.767-24-24
		c0-2.038,0.254-4.059,0.756-6.008c0.539-2.093,1.362-4.106,2.471-6.024c2.188-3.83,0.864-8.706-2.96-10.903
		c-3.823-2.198-8.707-0.884-10.914,2.933c-1.814,3.138-3.191,6.505-4.092,10.005c-0.837,3.25-1.262,6.614-1.262,9.997
		c0,22.056,17.944,40,40,40s40-17.944,40-40s-17.944-40-40-40c-13.233,0-24-10.767-24-24s10.767-24,24-24s24,10.767,24,24
		c0,4.222-1.109,8.37-3.207,11.995C274.581,239.82,275.888,244.713,279.712,246.926z"/>
</g>
<g>
</g>
<g>
</g>
<g>
</g>
<g>
</g>
<g>
</g>
<g>
</g>
<g>
</g>
<g>
</g>
<g>
</g>
<g>
</g>
<g>
</g>
<g>
</g>
<g>
</g>
<g>
</g>
<g>
</g>
</svg>
